HIERARCHY
ROOT Hips
{
	OFFSET 0.000000 0.000000 0.000000 
	CHANNELS 6 Xposition Yposition Zposition Zrotation Yrotation Xrotation
	JOINT LHipJoint
	{
		OFFSET 0.000000 0.000000 0.000000 
		CHANNELS 3 Zrotation Yrotation Xrotation
		JOINT LeftUpLeg
		{
			OFFSET 0.103546 -0.112676 0.039048 
			CHANNELS 3 Zrotation Yrotation Xrotation
			JOINT LeftLeg
			{
				OFFSET 0.162325 -0.445985 0.000000 
				CHANNELS 3 Zrotation Yrotation Xrotation
				JOINT LeftFoot
				{
					OFFSET 0.155773 -0.427981 0.000000 
					CHANNELS 3 Zrotation Yrotation Xrotation
					JOINT LeftToeBase
					{
						OFFSET 0.012315 -0.033835 0.134113 
						CHANNELS 3 Zrotation Yrotation Xrotation
						End Site
						{
							OFFSET 0.000000 -0.000000 0.069531 
						}
					}
				}
			}
		}
	}
	JOINT RHipJoint
	{
		OFFSET 0.000000 0.000000 0.000000 
		CHANNELS 3 Zrotation Yrotation Xrotation
		JOINT RightUpLeg
		{
			OFFSET -0.100669 -0.112676 0.039047 
			CHANNELS 3 Zrotation Yrotation Xrotation
			JOINT RightLeg
			{
				OFFSET -0.162189 -0.445611 0.000000 
				CHANNELS 3 Zrotation Yrotation Xrotation
				JOINT RightFoot
				{
					OFFSET -0.154237 -0.423765 0.000000 
					CHANNELS 3 Zrotation Yrotation Xrotation
					JOINT RightToeBase
					{
						OFFSET -0.014390 -0.039536 0.133355 
						CHANNELS 3 Zrotation Yrotation Xrotation
						End Site
						{
							OFFSET -0.000000 -0.000000 0.069731 
						}
					}
				}
			}
		}
	}
	JOINT LowerBack
	{
		OFFSET 0.000000 0.000000 0.000000 
		CHANNELS 3 Zrotation Yrotation Xrotation
		JOINT Spine
		{
			OFFSET 0.001226 0.128406 -0.008820 
			CHANNELS 3 Zrotation Yrotation Xrotation
			JOINT Spine1
			{
				OFFSET 0.000638 0.129022 -0.003701 
				CHANNELS 3 Zrotation Yrotation Xrotation
				JOINT Neck
				{
					OFFSET 0.000000 0.000000 0.000000 
					CHANNELS 3 Zrotation Yrotation Xrotation
					JOINT Neck1
					{
						OFFSET 0.000446 0.097944 0.009355 
						CHANNELS 3 Zrotation Yrotation Xrotation
						JOINT Head
						{
							OFFSET 0.002143 0.097526 -0.006254 
							CHANNELS 3 Zrotation Yrotation Xrotation
							End Site
							{
								OFFSET 0.000816 0.101600 -0.003291 
							}
						}
					}
				}
				JOINT LeftShoulder
				{
					OFFSET 0.000000 0.000000 0.000000 
					CHANNELS 3 Zrotation Yrotation Xrotation
					JOINT LeftArm
					{
						OFFSET 0.221378 0.056522 -0.010852 
						CHANNELS 3 Zrotation Yrotation Xrotation
						JOINT LeftForeArm
						{
							OFFSET 0.304071 -0.000000 -0.000000 
							CHANNELS 3 Zrotation Yrotation Xrotation
							JOINT LeftHand
							{
								OFFSET 0.209721 -0.000000 0.000000 
								CHANNELS 3 Zrotation Yrotation Xrotation
								JOINT LeftFingerBase
								{
									OFFSET 0.000000 0.000000 0.000000 
									CHANNELS 3 Zrotation Yrotation Xrotation
									JOINT LeftHandIndex1
									{
										OFFSET 0.041323 -0.000000 0.000000 
										CHANNELS 3 Zrotation Yrotation Xrotation
										End Site
										{
											OFFSET 0.033316 -0.000000 0.000000 
										}
									}
								}
								JOINT LThumb
								{
									OFFSET 0.000000 0.000000 0.000000 
									CHANNELS 3 Zrotation Yrotation Xrotation
									End Site
									{
										OFFSET 0.033825 -0.000000 0.033825 
									}
								}
							}
						}
					}
				}
				JOINT RightShoulder
				{
					OFFSET 0.000000 0.000000 0.000000 
					CHANNELS 3 Zrotation Yrotation Xrotation
					JOINT RightArm
					{
						OFFSET -0.218626 0.047496 -0.020385 
						CHANNELS 3 Zrotation Yrotation Xrotation
						JOINT RightForeArm
						{
							OFFSET -0.314156 -0.000000 0.000000 
							CHANNELS 3 Zrotation Yrotation Xrotation
							JOINT RightHand
							{
								OFFSET -0.210269 -0.000000 0.000000 
								CHANNELS 3 Zrotation Yrotation Xrotation
								JOINT RightFingerBase
								{
									OFFSET 0.000000 0.000000 0.000000 
									CHANNELS 3 Zrotation Yrotation Xrotation
									JOINT RightHandIndex1
									{
										OFFSET -0.045651 -0.000000 0.000000 
										CHANNELS 3 Zrotation Yrotation Xrotation
										End Site
										{
											OFFSET -0.036804 -0.000000 0.000000 
										}
									}
								}
								JOINT RThumb
								{
									OFFSET 0.000000 0.000000 0.000000 
									CHANNELS 3 Zrotation Yrotation Xrotation
									End Site
									{
										OFFSET -0.037366 -0.000000 0.037366 
									}
								}
							}
						}
					}
				}
			}
		}
	}
}
MOTION
Frames: 4
Frame Time: 0.033333
0.000000 1.057681 0.000000 2.356114 -4.299057 -5.256729 0.020256 0.020256 0.020256 -28.265085 -3.752886 -7.952329 2.414229 9.679814 27.946257 0.497071 6.084029 -16.895399 0.045000 -1.297200 -3.567886 0.020256 0.020256 0.020256 18.512800 7.035129 -8.904700 -13.031757 -18.792757 69.223328 0.732657 -15.094214 -5.767214 -1.067414 6.512057 -18.297215 -1.494771 0.216929 5.836915 0.020256 0.198529 1.460471 0.815314 0.103300 -2.676093 3.631714 7.905000 -8.018986 -3.840100 10.454743 5.074757 -1.286971 5.110029 3.506543 0.020256 0.020256 0.020256 -91.826973 5.087529 19.549213 19.368200 -29.807056 -5.245543 0.020256 0.020256 -23.292471 23.560457 20.963985 8.865671 -7.125000 0.020256 0.020256 -5.236857 52.587929 -0.986943 0.020256 0.020256 0.020256 85.114555 3.274114 34.630028 -18.301371 28.509871 -4.708514 0.020256 0.020256 -12.109529 -22.407715 15.657729 -6.348586 7.125000 0.020256 0.020256 3.526957 -13.137643 2.639200 
0.000000 1.058718 0.000000 2.264929 -2.670064 -5.540407 0.000000 0.000000 0.000000 -28.940620 -3.541821 -4.842357 2.334557 9.531428 27.471664 0.709993 5.120358 -18.643251 -0.003750 -0.475600 -1.305421 0.000000 0.000000 0.000000 18.183899 7.977257 -13.437150 -13.340414 -18.903166 70.181053 0.797564 -15.839579 -10.292329 -0.573879 4.998765 -13.869879 -1.478893 -0.198793 5.862078 0.143293 -0.348493 1.767643 1.002329 -0.173600 -2.360658 3.807679 8.016800 -8.363671 -3.836200 10.610836 6.083464 -1.272393 5.179207 3.944736 0.000000 0.000000 0.000000 -90.789291 3.267157 24.394777 22.892502 -34.101513 -7.016886 0.000000 0.000000 -25.744644 23.496664 22.630121 9.500443 -7.125000 0.000000 0.000000 -5.806815 54.334106 -1.321786 0.000000 0.000000 0.000000 85.878220 0.788979 31.134607 -15.885694 25.427292 -3.563679 0.000000 0.000000 -10.408756 -22.543377 14.466557 -5.923021 7.125000 0.000000 0.000000 3.362414 -14.390285 2.423400 
0.000000 1.056837 0.000000 2.252843 -0.996671 -5.303686 0.000000 0.000000 0.000000 -29.328457 -3.574257 -2.773686 2.310186 9.485343 27.324772 0.909914 4.004886 -19.970900 0.041200 -1.276300 -3.509957 0.000000 0.000000 0.000000 17.688499 9.511086 -17.848700 -12.655171 -18.651472 68.048386 0.600671 -14.932142 -13.438643 -0.688043 5.380171 -14.975542 -1.774114 -0.534414 6.090343 0.394114 -0.812014 1.725914 1.461143 -0.402700 -2.511422 3.532543 7.620200 -7.715557 -3.999400 10.125229 5.605371 -1.346514 4.939385 3.624329 0.000000 0.000000 0.000000 -89.712715 1.786386 28.536842 27.455500 -38.894169 -9.658029 0.000000 0.000000 -27.508215 24.101871 22.587257 9.747415 -7.125000 0.000000 0.000000 -5.170072 54.405785 -1.194129 0.000000 0.000000 0.000000 86.264870 -2.012157 28.223785 -13.655615 22.353714 -2.631843 0.000000 0.000000 -11.011786 -22.576342 15.527386 -6.351757 7.125000 0.000000 0.000000 3.405371 -13.254929 2.537800 
0.000000 1.053593 0.000000 1.850857 0.781021 -5.465364 0.000000 0.000000 0.000000 -29.297092 -3.180393 0.157786 2.234014 9.338858 26.859978 1.153236 2.797014 -21.553452 0.065250 -1.595100 -4.388993 0.000000 0.000000 0.000000 17.450199 10.954514 -20.283449 -10.886928 -17.869179 62.402813 0.126979 -12.048408 -16.312256 -0.573607 4.951679 -13.747107 -1.687836 -1.043636 6.726607 0.731036 -1.487336 1.643186 1.823257 -0.734700 -2.918586 3.423607 7.596800 -7.737843 -3.780200 10.106221 6.110878 -1.248336 4.932164 3.782921 0.000000 0.000000 0.000000 -88.785133 0.659314 31.160608 32.312302 -43.135128 -12.812072 0.000000 0.000000 -28.177086 23.556379 19.616093 8.324387 -7.125000 0.000000 0.000000 -4.862828 51.160461 -0.749771 0.000000 0.000000 0.000000 86.821335 -4.834293 23.126564 -11.634336 19.380236 -1.903507 0.000000 0.000000 -7.726814 -21.510307 14.217614 -5.525693 7.125000 0.000000 0.000000 4.050728 -14.773171 2.894000 
